<svg width="580" height="139" viewBox="0 0 580 139" fill="none" xmlns="http://www.w3.org/2000/svg">
<path d="M127.101 82.7995C126.442 91.909 123.07 99.0802 116.984 104.313C110.937 109.546 102.951 112.163 93.0278 112.163C82.1741 112.163 73.6267 108.519 67.3858 101.232C61.1836 93.9053 58.0825 83.8655 58.0825 71.1123V65.9374C58.0825 57.7971 59.5168 50.6258 62.3853 44.4236C65.2538 38.2215 69.3433 33.473 74.6539 30.1781C80.0033 26.8444 86.2055 25.1776 93.2604 25.1776C103.029 25.1776 110.898 27.7941 116.867 33.0272C122.837 38.2602 126.287 45.6059 127.217 55.0642H109.774C109.347 49.5986 107.816 45.6447 105.18 43.2026C102.583 40.7217 98.6098 39.4813 93.2604 39.4813C87.4459 39.4813 83.085 41.5745 80.1777 45.761C77.3092 49.9087 75.8362 56.3628 75.7587 65.1234V71.5194C75.7587 80.6675 77.1348 87.3543 79.887 91.5795C82.678 95.8047 87.0583 97.9173 93.0278 97.9173C98.416 97.9173 102.428 96.6963 105.064 94.2542C107.739 91.7733 109.27 87.9551 109.657 82.7995H127.101ZM153.848 54.9479C158.306 49.5986 163.907 46.9239 170.652 46.9239C184.297 46.9239 191.216 54.851 191.41 70.7053V111H174.606V71.1705C174.606 67.5655 173.83 64.9102 172.28 63.2046C170.729 61.4602 168.152 60.588 164.547 60.588C159.624 60.588 156.057 62.4875 153.848 66.2863V111H137.044V21.6888H153.848V54.9479ZM201.469 78.9619C201.469 72.721 202.67 67.1585 205.074 62.2743C207.477 57.39 210.927 53.6106 215.424 50.9359C219.959 48.2612 225.211 46.9239 231.181 46.9239C239.67 46.9239 246.59 49.5211 251.939 54.7154C257.327 59.9097 260.331 66.9646 260.951 75.8802L261.068 80.183C261.068 89.8351 258.374 97.5878 252.986 103.441C247.597 109.256 240.368 112.163 231.297 112.163C222.227 112.163 214.978 109.256 209.551 103.441C204.163 97.6266 201.469 89.7188 201.469 79.7178V78.9619ZM218.273 80.183C218.273 86.1526 219.397 90.7267 221.645 93.9053C223.893 97.0451 227.111 98.6151 231.297 98.6151C235.368 98.6151 238.546 97.0645 240.833 93.9634C243.12 90.8236 244.264 85.8231 244.264 78.9619C244.264 73.1087 243.12 68.5733 240.833 65.356C238.546 62.1386 235.329 60.5299 231.181 60.5299C227.072 60.5299 223.893 62.1386 221.645 65.356C219.397 68.5346 218.273 73.4769 218.273 80.183ZM309.096 104.604C304.948 109.643 299.211 112.163 291.885 112.163C285.14 112.163 279.984 110.225 276.418 106.348C272.891 102.472 271.088 96.7932 271.011 89.3118V48.0868H287.815V88.7304C287.815 95.2814 290.799 98.5569 296.769 98.5569C302.467 98.5569 306.382 96.58 308.514 92.6261V48.0868H325.376V111H309.561L309.096 104.604ZM380.207 34.7134C376.874 34.3258 373.773 34.1319 370.904 34.1319C363.307 34.1319 359.508 37.3687 359.508 43.8422V48.0868H372.009V60.4136H359.508V111H342.646V60.4136H333.284V48.0868H342.646V43.2026C342.723 35.9151 345.01 30.3137 349.507 26.3986C354.003 22.4447 360.36 20.4678 368.578 20.4678C374.432 20.4678 383.929 21.088 397.07 22.3284V111H380.207V34.7134ZM440.039 112.163C430.813 112.163 423.293 109.333 417.479 103.674C411.703 98.0142 408.815 90.4747 408.815 81.0552V79.4271C408.815 73.1087 410.036 67.4686 412.478 62.5068C414.92 57.5063 418.37 53.6687 422.828 50.9941C427.324 48.2806 432.441 46.9239 438.178 46.9239C446.784 46.9239 453.548 49.6373 458.471 55.0642C463.433 60.4911 465.914 68.1857 465.914 78.1479V85.0091H425.851C426.394 89.118 428.022 92.4129 430.736 94.8938C433.488 97.3746 436.957 98.6151 441.144 98.6151C447.617 98.6151 452.676 96.2699 456.32 91.5795L464.576 100.825C462.057 104.391 458.645 107.182 454.343 109.197C450.04 111.174 445.272 112.163 440.039 112.163ZM438.12 60.5299C434.786 60.5299 432.073 61.654 429.98 63.9023C427.925 66.1506 426.607 69.368 426.026 73.5544H449.4V72.2171C449.323 68.4958 448.315 65.6273 446.377 63.6116C444.439 61.5571 441.686 60.5299 438.12 60.5299ZM513.186 104.604C509.038 109.643 503.301 112.163 495.975 112.163C489.23 112.163 484.074 110.225 480.508 106.348C476.981 102.472 475.178 96.7932 475.101 89.3118V48.0868H491.905V88.7304C491.905 95.2814 494.889 98.5569 500.859 98.5569C506.557 98.5569 510.472 96.58 512.604 92.6261V48.0868H529.466V111H513.651L513.186 104.604ZM577.494 63.8442C575.207 63.5341 573.192 63.379 571.447 63.379C565.09 63.379 560.923 65.5304 558.946 69.8331V111H542.142V48.0868H558.016L558.481 55.5875C561.853 49.8118 566.524 46.9239 572.494 46.9239C574.355 46.9239 576.099 47.1759 577.727 47.6798L577.494 63.8442Z" fill="#E3CEBF"/>
<path d="M30.5915 107.437L42 107.437L42 114.109L9.62019 114.109L9.62019 101.477C9.62019 99.0458 10.065 96.9109 10.9545 95.0725C11.8441 93.2192 13.1117 91.7959 14.7574 90.8026C16.3882 89.8093 18.2489 89.3126 20.3393 89.3126C23.5121 89.3126 26.0177 90.4023 27.8561 92.5817C29.6797 94.7463 30.5915 97.7485 30.5915 101.588L30.5915 107.437ZM25.1874 107.437L25.1874 101.477C25.1874 99.713 24.7723 98.3712 23.942 97.452C23.1118 96.518 21.9257 96.051 20.3838 96.051C18.7974 96.051 17.515 96.518 16.5365 97.452C15.558 98.3861 15.0539 99.6759 15.0242 101.322L15.0242 107.437L25.1874 107.437ZM42.4448 74.3681C42.4448 77.8966 41.3625 80.7729 39.1979 82.9968C37.0333 85.2058 34.1497 86.3103 30.547 86.3103L29.9243 86.3103C27.5077 86.3103 25.3505 85.8433 23.4528 84.9093C21.5402 83.9753 20.0725 82.6558 19.0495 80.9508C18.0117 79.231 17.4928 77.2739 17.4928 75.0797C17.4928 71.7884 18.5306 69.2012 20.6062 67.3183C22.6818 65.4206 25.6248 64.4718 29.435 64.4718L32.0592 64.4718L32.0592 79.7944C33.6308 79.5868 34.891 78.9641 35.8398 77.9263C36.7887 76.8736 37.2631 75.5467 37.2631 73.9455C37.2631 71.4696 36.3661 69.5348 34.5722 68.1412L38.1082 64.9833C39.4722 65.9469 40.5396 67.2516 41.3106 68.8973C42.0667 70.543 42.4448 72.3666 42.4448 74.3681ZM22.6967 75.102C22.6967 76.377 23.1266 77.4148 23.9865 78.2154C24.8464 79.0012 26.077 79.5052 27.6782 79.7276L27.6782 70.7876L27.1667 70.7876C25.7434 70.8173 24.6463 71.2027 23.8753 71.944C23.0895 72.6853 22.6967 73.738 22.6967 75.102ZM12.022 53.1077L17.9375 53.1077L17.9375 48.9935L22.6522 48.9935L22.6522 53.1077L34.6612 53.1077C35.5507 53.1077 36.1882 52.9372 36.5737 52.5962C36.9592 52.2552 37.1519 51.6029 37.1519 50.6392C37.1519 49.9275 37.1 49.2974 36.9962 48.7489L41.8666 48.7489C42.252 50.0091 42.4448 51.3064 42.4448 52.6407C42.4448 57.1478 40.169 59.4458 35.6174 59.5347L22.6522 59.5347L22.6522 63.0485L17.9375 63.0485L17.9375 59.5347L12.022 59.5347L12.022 53.1077ZM42 38.6302L42 45.0795L17.9375 45.0795L17.9375 38.6302L42 38.6302ZM11.7106 45.4575C10.747 45.4575 9.95377 45.1388 9.33108 44.5013C8.7084 43.8489 8.39705 42.9668 8.39705 41.8548C8.39705 40.7577 8.7084 39.883 9.33108 39.2306C9.95377 38.5783 10.747 38.2521 11.7106 38.2521C12.6892 38.2521 13.4898 38.5857 14.1124 39.2529C14.7351 39.9052 15.0465 40.7725 15.0465 41.8548C15.0465 42.9371 14.7351 43.8119 14.1124 44.479C13.4898 45.1314 12.6892 45.4575 11.7106 45.4575ZM12.022 25.6204L17.9375 25.6204L17.9375 21.5063L22.6522 21.5063L22.6522 25.6204L34.6612 25.6204C35.5507 25.6204 36.1882 25.4499 36.5737 25.109C36.9592 24.768 37.1519 24.1156 37.1519 23.1519C37.1519 22.4403 37.1 21.8102 36.9962 21.2616L41.8666 21.2616C42.252 22.5218 42.4448 23.8191 42.4448 25.1534C42.4448 29.6605 40.169 31.9585 35.6174 32.0475L22.6522 32.0475L22.6522 35.5612L17.9375 35.5612L17.9375 32.0475L12.022 32.0475L12.022 25.6204Z" fill="#E3CEBF"/>
</svg>
